<svg xmlns="http://www.w3.org/2000/svg" xmlns:xlink="http://www.w3.org/1999/xlink" viewBox="0 0 68.83 22.33"><defs><style>.cls-1{fill:url(#Безымянный_градиент_18);}.cls-2{fill:url(#Безымянный_градиент_24);}.cls-3{fill:url(#Безымянный_градиент_42);}.cls-4{fill:#fff;}</style><linearGradient id="Безымянный_градиент_18" x1="0.84" y1="4.69" x2="11.4" y2="4.69" gradientUnits="userSpaceOnUse"><stop offset="0" stop-color="#ff56f6"/><stop offset="0.61" stop-color="#ff55f8"/><stop offset="0.83" stop-color="#ff4fff"/><stop offset="0.84" stop-color="#ff4fff"/></linearGradient><linearGradient id="Безымянный_градиент_24" x1="12.42" y1="4.82" x2="23.35" y2="4.82" gradientUnits="userSpaceOnUse"><stop offset="0" stop-color="#ff56f6"/><stop offset="0.77" stop-color="#cd56f6"/></linearGradient><linearGradient id="Безымянный_градиент_42" x1="23.69" y1="4.71" x2="34.56" y2="4.71" gradientUnits="userSpaceOnUse"><stop offset="0.13" stop-color="#cd56f6"/><stop offset="0.25" stop-color="#aa5bf8"/><stop offset="0.52" stop-color="#5168fe"/><stop offset="0.57" stop-color="#406aff"/><stop offset="0.69" stop-color="#3e82f4"/><stop offset="0.87" stop-color="#3ca1e7"/><stop offset="0.97" stop-color="#3bace2"/></linearGradient></defs><g id="Слой_2" data-name="Слой 2"><g id="Слой_1-2" data-name="Слой 1"><path class="cls-1" d="M8,9.13,5.51,6.26H3.67V9.13H.84V.25H7.55a5.05,5.05,0,0,1,2,.37,3.12,3.12,0,0,1,1.33,1,2.58,2.58,0,0,1,.48,1.54v0a2.72,2.72,0,0,1-.67,1.89,3.36,3.36,0,0,1-1.84,1l2.58,3Zm.38-6.54a.9.9,0,0,0-.51-.26,6.87,6.87,0,0,0-.92-.05H6.49c-.59,0-1.53,0-2.82,0V4.21H6.92a5.51,5.51,0,0,0,.92,0,.93.93,0,0,0,.51-.24.89.89,0,0,0,.19-.64A1,1,0,0,0,8.35,2.59Z"/><path class="cls-2" d="M20,.26h3V4.81a4,4,0,0,1-.72,2.34,4.88,4.88,0,0,1-1.94,1.64,6,6,0,0,1-2.68.59,6.69,6.69,0,0,1-2.83-.58,5,5,0,0,1-2-1.63,4,4,0,0,1-.75-2.33V.26h3.07V4.84a1.81,1.81,0,0,0,.75,1.6A3,3,0,0,0,17.68,7a2.82,2.82,0,0,0,1.06-.21,2,2,0,0,0,.89-.69A2,2,0,0,0,20,4.84Z"/><path class="cls-3" d="M30.43,3.86A11.27,11.27,0,0,1,32.49,4,2.87,2.87,0,0,1,34,4.72a2,2,0,0,1,.59,1.53,2.48,2.48,0,0,1-1.65,2.52,10.08,10.08,0,0,1-3.7.65,10.36,10.36,0,0,1-3.78-.67,2.49,2.49,0,0,1-1.74-2.53l3.06,0a1,1,0,0,0,.75,1,6.11,6.11,0,0,0,1.76.23,4.35,4.35,0,0,0,1.62-.28.93.93,0,0,0,.68-.9h0a.56.56,0,0,0-.42-.52,3,3,0,0,0-.9-.2c-.32,0-.7,0-1.15-.05h-.9a13.33,13.33,0,0,1-2.25-.16,3.23,3.23,0,0,1-1.6-.72A2,2,0,0,1,23.69,3,2.33,2.33,0,0,1,25.37.57,12,12,0,0,1,29.21,0a9.92,9.92,0,0,1,3.68.66A2.5,2.5,0,0,1,34.56,3.2h-3a1,1,0,0,0-.68-.89A4.39,4.39,0,0,0,29.22,2a5.58,5.58,0,0,0-1.76.24c-.48.16-.72.41-.72.76s.24.6.73.72a7,7,0,0,0,1.65.18Z"/><path class="cls-4" d="M12.66,22.32h-3L8.84,20.8h-5L3,22.32H0l4.81-8.88h3ZM6.34,16.15,4.9,18.79H7.76Z"/><path class="cls-4" d="M23.8,18.37a1.88,1.88,0,0,1,.51,1.42v.05a2,2,0,0,1-1.12,1.91,7.58,7.58,0,0,1-3.22.57h-7V13.44h7.6a3.92,3.92,0,0,1,2.22.58,1.81,1.81,0,0,1,.83,1.59v.05a2.22,2.22,0,0,1-.33,1.27,2,2,0,0,1-1,.74A3,3,0,0,1,23.8,18.37ZM20,16.89a.81.81,0,0,0,.48-.21.79.79,0,0,0,.2-.6.73.73,0,0,0-.19-.55,1,1,0,0,0-.5-.21,6.46,6.46,0,0,0-.87,0H15.7v1.63h3.43C19.53,16.92,19.82,16.91,20,16.89Zm.52,3.39a.9.9,0,0,0,.54-.24.86.86,0,0,0,.21-.63.76.76,0,0,0-.21-.61.9.9,0,0,0-.54-.23,8.47,8.47,0,0,0-1,0H15.7V20.3h3.82C20,20.32,20.31,20.3,20.53,20.28Z"/><path class="cls-4" d="M34.55,20.16a4.51,4.51,0,0,1-1.89,1.59,6.63,6.63,0,0,1-2.84.57H25.07V13.44h4.74a6.56,6.56,0,0,1,2.85.58,4.42,4.42,0,0,1,1.89,1.58,4,4,0,0,1,.67,2.29A4,4,0,0,1,34.55,20.16ZM29.88,20a2.76,2.76,0,0,0,1.73-.52,1.79,1.79,0,0,0,.69-1.54A1.81,1.81,0,0,0,32,16.84a2.35,2.35,0,0,0-.9-.74,2.69,2.69,0,0,0-1.19-.27H28V20Z"/><path class="cls-4" d="M44.83,13.44v5.34a3.71,3.71,0,0,1-.39,1.66A3.22,3.22,0,0,1,43,21.78a6.1,6.1,0,0,1-2.81.54,4.73,4.73,0,0,1-2.68-.67,3.7,3.7,0,0,1-1.41-1.56,4,4,0,0,1-.41-1.62h2.79A1.79,1.79,0,0,0,39,19.73a1.75,1.75,0,0,0,1.38.53,1.73,1.73,0,0,0,1.15-.4A1.38,1.38,0,0,0,42,18.78V13.44Z"/><path class="cls-4" d="M54.32,18.87H48.78v1.35l6.55,0v2.15H45.82V13.44h9.51v2.15H48.78v1.17h5.54Z"/><path class="cls-4" d="M68.83,13.44v8.88h-3v-4l-2,4H61.2l-2.09-4.06v4.06h-3V13.44h3.38l3,6.11,3-6.11Z"/></g></g></svg>